<svg xmlns="http://www.w3.org/2000/svg"
     viewBox="0 0 1100 300"
     width="1100" height="300"
     role="img" aria-label="QuadTech Consulting logo">
  <title>QuadTech Consulting</title>

  <defs>
    <style>
      .text-navy { fill: #2C3E50; font-family: Inter, "Segoe UI", "Helvetica Neue", Arial, sans-serif; font-weight: 700; }
      .text-gray { fill: #5A6A7A; font-family: Inter, "Segoe UI", "Helvetica Neue", Arial, sans-serif; font-weight: 500; }
    </style>
  </defs>

  <!-- Icon -->
  <g transform="translate(-30, 2) scale(0.60)">
    <g fill="#1E2F4C" fill-rule="evenodd">
      <path d="M 146.00 240.50 L 142.00 237.50 L 92.50 187.00 L 91.50 184.00 L 98.50 176.00 L 109.00 166.50 L 166.00 108.50 L 211.00 65.50 L 213.00 65.50 L 219.00 61.50 L 222.00 60.50 L 223.00 61.50 L 226.00 59.50 L 228.00 60.50 L 229.00 59.50 L 307.00 59.50 L 308.50 61.00 L 307.50 64.00 L 155.50 215.00 L 147.50 225.00 L 148.50 226.00 L 147.50 227.00 L 147.50 239.00 L 146.00 240.50 Z"/>
      <path d="M 294.00 414.50 L 292.00 413.50 L 290.00 414.50 L 214.00 414.50 L 212.50 413.00 L 212.50 411.00 L 369.50 255.00 L 372.50 251.00 L 371.50 250.00 L 373.50 245.00 L 373.50 238.00 L 375.00 236.50 L 422.50 283.00 L 426.50 289.00 L 425.50 295.00 L 318.00 403.50 L 307.00 410.50 L 306.00 409.50 L 302.00 412.50 L 301.00 411.50 L 299.00 413.50 L 298.00 412.50 L 294.00 414.50 Z"/>
    </g>
    <g fill="#8C95A2" fill-rule="evenodd">
      <path d="M 438.00 278.50 L 430.00 277.50 L 277.50 125.00 L 276.50 123.00 L 277.50 120.00 L 314.00 84.50 L 324.00 82.50 L 335.00 87.50 L 466.50 220.00 L 470.50 230.00 L 470.50 241.00 L 468.50 247.00 L 438.00 278.50 Z"/>
      <path d="M 204.00 389.50 L 197.00 388.50 L 189.00 384.50 L 55.50 250.00 L 51.50 241.00 L 50.50 234.00 L 53.50 221.00 L 58.50 213.00 L 78.00 193.50 L 80.00 192.50 L 86.00 193.50 L 243.50 352.00 L 243.50 355.00 L 240.50 359.00 L 214.00 385.50 L 204.00 389.50 Z"/>
    </g>
  </g>

  <!-- Wordmark block -->
  <g transform="translate(260, 145)">
    <text x="0" y="0" class="text-navy" font-size="90" letter-spacing="-1">QuadTech</text>
    <text x="240" y="50" class="text-gray" font-size="36" letter-spacing="0.28em" text-anchor="middle">CONSULTING</text>
  </g>
</svg>
